<?xml version="1.0" encoding="iso-8859-1"?>
<!-- Generator: Adobe Illustrator 19.0.0, SVG Export Plug-In . SVG Version: 6.00 Build 0)  -->
<svg version="1.1" id="Layer_1" xmlns="http://www.w3.org/2000/svg" xmlns:xlink="http://www.w3.org/1999/xlink" height="25px" width="25px"
	 viewBox="0 0 491.521 491.521" style="enable-background:new 0 0 491.521 491.521;" xml:space="preserve">
<g>
	<g>
		<path d="M491.41,245.759c-1.353-57.804-15.123-115.305-39.652-139.832c-72.832-72.831-339.164-72.831-411.997,0
			C15.234,130.454,1.463,187.955,0.11,245.759c-1.433,61.235,11.07,122.81,39.651,145.906c80.113,64.736,331.884,64.736,411.997,0
			C480.338,368.569,492.844,306.994,491.41,245.759z M320.991,259.378l-130.453,95.838c-11.161,8.199-26.904,0.23-26.904-13.617
			v-95.84v-95.836c0-13.85,15.743-21.819,26.904-13.619l130.453,95.836c4.596,3.378,6.894,8.496,6.894,13.619
			C327.885,250.88,325.587,256.002,320.991,259.378z"/>
	</g>
</g>
<g>
</g>
<g>
</g>
<g>
</g>
<g>
</g>
<g>
</g>
<g>
</g>
<g>
</g>
<g>
</g>
<g>
</g>
<g>
</g>
<g>
</g>
<g>
</g>
<g>
</g>
<g>
</g>
<g>
</g>
</svg>
